<?xml version="1.0" encoding="utf-8"?>
<!-- Generator: Adobe Illustrator 27.5.0, SVG Export Plug-In . SVG Version: 6.00 Build 0)  -->
<svg version="1.1" xmlns="http://www.w3.org/2000/svg" xmlns:xlink="http://www.w3.org/1999/xlink" x="0px" y="0px"
	 viewBox="0 0 1100 800" style="enable-background:new 0 0 1100 800;" xml:space="preserve">
<g id="background">
	<rect x="0" style="fill:#FFFFFF;" width="1100" height="800"/>
</g>
<g id="shadow">
	<g>
		<path style="fill:#F7F7F7;" d="M523.051,648.774c-27.109,0.084-54.218,0.762-81.279,3.892c-10.203,1.18-20.193,3.776-30.419,4.823
			c-20.427,2.092-40.489,5.993-60.988,7.793c-16.508,1.449-33.085,2.305-49.545,4.143c-15.432,1.724-32.517,1.326-47.83-1.522
			c-11.337-2.109-22.725-3.296-33.872-6.683c-12.469-3.789-26.015-6.497-39.006-6.4c-18.525,0.139-36.567,0.155-54.295,6.845
			c-6.223,2.348-13.842,6.209-18.568,11.137c-10.818,11.282-12.283,39.432-1.481,51.133c18.194,19.693,57.026,27.42,82.528,27.785
			c27.946,0.4,55.094-1.758,83.081-3.026c26.006-1.179,51.947-2.856,77.995-2.797c53.202,0.121,106.411,0,159.517-3.696
			c49.894-3.473,99.913-2.28,149.917-2.28c51.276,0,102.206,0.419,153.113,7.506c22.181,3.088,44.778,4.169,67.069,6.332
			c19.964,1.938,39.149-0.038,59.034-1.829c16.697-1.504,33.285-5.964,48.454-13.503c12.008-5.968,33.414-24.507,37.096-38.752
			c10.323-39.935-145.485-38.975-169.408-38.885c-26.762,0.1-53.736,1.016-80.477-0.045c-11.248-0.446-22.331-2.733-33.31-5.238
			c-10.935-2.496-21.952-1.861-33.042-2.91c-46.243-4.373-92.59-3.734-138.981-3.734
			C553.26,648.865,538.155,648.728,523.051,648.774z"/>
	</g>
</g>
<g id="object">
	<g>
		<g>
			<path style="fill:#E5D1BD;" d="M350.088,393.514c-0.228-0.189-0.465-0.382-0.728-0.494c-2.453-1.047-4.359-0.123-6.997-0.457
				c-1.176-0.149-2.497-2.897-4.094-1.004c-0.589,0.699-1.792,2.616-3.034,4.117c-1.811,2.19-5.43,3.871-8.549,4.675
				c-4.192,1.081-8.655,2.128-12.927,2.567c-8.975,0.923-19.068,0.961-28.067,0.159c0.663-14.92-7.735-29.884-20.817-37.09
				c-1.367-0.753-2.837-1.441-4.398-1.457c-1.32-0.013-2.599,0.459-3.774,1.06c-12.423,6.361-5.864,17.86-0.967,27.347
				c3.056,5.921,6.535,11.737,10.433,17.146c5.46,7.574,13.358,9.083,22.454,8.81c9.639-0.289,19.398-0.753,28.794-3.093
				c4.566-1.137,8.59-3.052,12.927-4.758c4.286-1.686,4.797,0.316,8.927-0.197c2.305-0.286,4.708-0.143,6.927-0.855
				c3.98-1.278,5.35-5.372,6.899-8.831c0.386-0.861,0.649-1.442,0.591-2.324c-0.094-1.435-1.012-2.487-1.885-3.563
				C351.286,394.635,350.716,394.036,350.088,393.514z"/>
		</g>
		<g>
			<path style="fill:#587BC9;" d="M252.313,400.978c2.818,4.309,5.768,8.416,8.763,12.261c4.466,5.732,9.5,11.837,16.59,13.429
				c2.733,0.614,5.571,0.493,8.368,0.354c13.262-0.658,26.508-1.648,39.721-2.969c0.982-6.905,0.91-13.959-0.213-20.842
				c-0.315-1.931-0.796-3.998-2.277-5.276c-2.202-1.9-5.537-1.257-8.346-0.507c-4.575,1.221-9.151,2.443-13.726,3.664
				c-1.485,0.396-3.143,0.775-4.493,0.04c-0.881-0.48-1.464-1.356-1.997-2.206c-10.083-16.07-15.338-31.391-20.941-49.363
				c-2.472-7.922-5.092-16.112-10.647-22.276c-11.861-13.164-33.829-5.322-33.057,12.992
				C230.937,361.161,240.466,382.862,252.313,400.978z"/>
		</g>
	</g>
	<g>
		<g>
			<g>
				<g id="XMLID_29_">
					<path id="XMLID_30_" style="fill:#EACDB0;" d="M659.144,591.516l0.689,41.871c-0.281,11.617,0.765,23.198,1.472,34.777
						c0.656,10.755-1.512,21.84,3.591,31.808c1.6,3.126,5.005,5.303,7.596,1.692c1.996-2.782,1.078-7.597,1.571-10.827
						c3.706-24.273,10.605-47.944,14.047-72.262C691.715,593.101,681.86,593.773,659.144,591.516z"/>
				</g>
				<polygon style="fill:#154E93;" points="661.523,692.814 658.831,699.799 672.078,711.459 684.213,711.959 688.137,705.556 
					671.817,691.365 				"/>
			</g>
			<g>
				<g id="XMLID_27_">
					<path id="XMLID_28_" style="fill:#EACDB0;" d="M629.482,591.923c0,0-7.637,41.176-7.637,41.176
						c-2.647,18.419-8.665,36.357-11.312,54.777c-0.608,4.235-0.302,8.868-2.072,12.864c-1.732,3.908-5.121,4.063-8.113,1.411
						c-4.007-3.553-2.158-9.9-2.085-14.752c0.49-32.325-2.052-64.192-2.664-96.57c-0.008-0.424,0.011-0.911,0.339-1.18
						c0.267-0.219,0.647-0.215,0.992-0.192C600.074,589.666,629.318,592.812,629.482,591.923z"/>
				</g>
				<polygon style="fill:#154E93;" points="598.17,694.533 593.971,700.73 604.244,715.079 615.953,718.305 621.221,712.953 
					608.525,695.445 				"/>
			</g>
			<polygon style="fill:#1A3151;" points="702.299,618.157 696.586,558.295 693.831,519.401 684.568,487.634 634.555,479.872 
				572.721,490.47 569.749,502.484 581.649,613.687 641.29,618.157 640.481,548.945 649.681,591.844 649.291,618.157 			"/>
		</g>
		<path style="fill:#FFFFFF;" d="M585.847,370.676c-0.084,2.021-0.14,4.041-0.176,6.058c-0.724,41.061,1.54,82.645,1.8,124.046
			c21.204-3.319,42.64-5.147,64.1-5.472c4.967-0.075,27.55,3.412,30.695,0.447c4.267-4.025-0.426-3.267-0.113-8.51
			c0.404-6.784-2.855-12.34-1.624-20.379c1.447-9.448,4.326-18.794,5.984-28.24c3.325-18.942,5.327-38.116,5.976-57.336
			c0.576-17.048-0.042-34.728-7.373-50.13c-18.079-37.981-76.365-37.298-92.358,2.359
			C588.02,345.264,586.376,357.981,585.847,370.676z"/>
		<path style="fill:#96BFEE;" d="M651.618,317.397l-15.83,28.849c0.827,29.143,1.654,58.287,2.482,87.43
			c0.381,13.431,0.762,26.862,1.144,40.293c0.132,4.664,0.248,9.328,0.397,13.991c0.067,2.093-0.511,5.617,0.683,7.325
			c2.592,3.708,12.066,2.552,16.199,2.877c6.445,0.507,12.984,1.034,19.054,3.259c4.042,1.482,7.872,3.713,12.135,4.311
			c0.958,0.134,2.029,0.154,2.781-0.454c0.841-0.68,0.984-1.885,1.064-2.964c1.481-20.007,1.512-40.634,2.622-60.856
			c0.873-15.903,3.027-31.935,2.268-47.862c-0.781-16.382-3.345-32.679-6.477-48.759c-1.854-9.52-4.034-19.226-9.274-27.387
			c-5.941-9.251-14.35-12.957-24.709-15.043c-3.659-0.736-17.275-5.885-15.002,2.432
			C642.277,308.954,648.841,314.093,651.618,317.397z"/>
		<path style="fill:#96BFEE;" d="M617.177,320.11l15.83,28.849c-0.331,0-2.007,70.719-2.143,75.492
			c-0.515,18.153-1.03,36.306-1.546,54.459c-0.143,5.046,0.535,10.956-0.452,15.915c-1.378,6.925-8.667,5.561-14.879,6.121
			c-13.586,1.225-27.892,3.544-41.516,2.857c-3.93-0.199,1.242-82.214,1.235-89.867c-0.026-27.527-5.705-58.068,8.278-83.03
			c4.068-7.263,11.24-18.907,19.158-22.493c7.377-3.341,17.939-3.91,25.948-5.783l0.417,5.19L617.177,320.11z"/>
		<g>
			<g>
				<path style="fill:#1A3151;" d="M651.536,250.23c2.492,4.368,3.693,9.399,3.915,14.423c0.059,1.336,0.15,2.878,1.23,3.667
					c1.156,0.844,0.14,2.697,1.019,1.567c0.879-1.13,3.866-5.052,4-6.477c0.315-3.339,0.31-6.708-0.014-10.046
					c-0.282-2.903-0.875-5.936-2.775-8.149c-1.126-1.312-2.629-2.235-4.11-3.129c-2.146-1.297-4.359-2.605-6.824-3.064
					c-4.25-0.792-6.856,0.733-3.106,3.696C647.558,244.84,649.829,247.238,651.536,250.23z"/>
				<g>
					<path style="fill:#EACDB0;" d="M624.985,307.218c0.028,2.056-0.393,4.189,1.421,5.783c0.872,0.766,2.051,1.074,3.198,1.255
						c2.964,0.469,6.035,0.252,8.903-0.632c1.18-0.363,2.356-0.857,3.247-1.712c1.052-1.01,1.106-1.968,1.156-3.291
						c0.059-1.55,0.372-3.125,0.575-4.697c0.444-3.438,0.643-6.903,0.742-10.366c5.092-0.874,11.08-2.52,12.821-7.854
						c0.548-1.68,0.568-3.507,0.581-5.295c0.054-7.389,0.108-14.779,0.162-22.168c0.019-2.555,0.025-5.189-0.851-7.561
						c-1.536-4.162-5.438-6.642-9.264-8.203c-9.765-3.983-21.147-3.824-30.16,1.841c-2.399,1.508-4.663,3.447-6.044,6.079
						c-2.13,4.059-1.862,9.071-1.531,13.755c0.305,4.323,0.611,8.647,0.916,12.97c0.351,4.973,1.098,10.697,4.96,13.323
						c2.05,1.394,4.7,1.65,6.467,3.455c3.084,3.15,1.614,7.855,2.526,11.672C624.937,306.108,624.977,306.66,624.985,307.218z"/>
				</g>
				<path style="fill:#3B455A;" d="M659.42,277.465c-0.083-1.37-0.681-5.385-2.742-2.862c-0.539,0.66-0.672,1.593-0.705,2.471
					c-0.033,0.879,0.007,1.783-0.27,2.61c-0.636,1.899-2.737,2.763-4.609,2.73c-0.744-0.013-1.503-0.136-2.161-0.51
					c-0.639-0.364-1.146-0.942-1.641-1.51c-1.201-1.379-2.403-2.757-3.604-4.136c-2.065-2.37-6.161-1.345-8.944-0.982
					c-3.207,0.419-6.416,1.386-9.036,3.496c-0.264,0.213-0.523,0.437-0.781,0.66c-0.632,0.545-1.267,1.085-2.001,1.442
					c-2.477,1.206-5.544-0.052-7.28-2.308c-0.796-1.034-1.538-2.365-2.774-2.538c-0.966-0.135-1.908,0.558-2.404,1.462
					c-0.496,0.905-0.629,1.983-0.696,3.032c-0.244,3.817,0.282,7.753,1.936,11.138c3.588,7.341,10.524,8.243,17.494,8.078
					c2.755-0.065,5.511-0.13,8.266-0.195c5.037-0.119,10.362-0.328,14.606-3.256c3.743-2.583,5.968-6.975,6.88-11.575
					C659.425,282.338,659.567,279.887,659.42,277.465z M640.99,287.871c-2.653,1.784-5.577,1.88-8.533,0.99
					c-1.257-0.378-0.724-2.488,0.535-2.109c2.45,0.738,4.763,0.718,6.972-0.766C641.075,285.237,642.095,287.128,640.99,287.871z"/>
				<path style="fill:#3B455A;" d="M660.472,237.425c0.487-1.791,0.846-3.616,1.075-5.458c-1.705,0.598-3.562,0.757-5.343,0.458
					c-0.004-1.063-0.008-2.125-0.013-3.188c-0.008-0.884-11.963-1.503-12.935-1.582c-9.094-0.746-17.411-1.456-25.635,3.425
					c-7.025,4.169-11.528,10.395-12.606,18.499c-1.029,7.742,1.504,17.853,5.981,24.279c-0.026-2.061-1.212-6.923-0.726-8.882
					c0.298-1.963,0.976-3.856,1.912-5.603c1.868-3.489,4.763-6.426,8.106-8.521c5.33-3.34,11.528-5.107,17.717-5.969
					c5.671-0.79,12.582-1.519,18.184-0.017c2.693,0.722,3.14,1.398,4.771-1.321c0.288-0.479,2.568-6.075,2.345-6.079
					C662.362,237.453,661.417,237.439,660.472,237.425z"/>
			</g>
		</g>
	</g>
	<g>
		<g>
			<g>
				<path style="fill:#EACDB0;" d="M696.848,345.009c-2.625-0.056-5.102-1.237-7.292-2.687
					c-8.748-5.792-12.552-16.382-17.361-25.272c-2.868-5.301-5.677-13.168-10.124-17.277c-0.834-0.77-10.4-5.317-10.32-5.615
					c0.005-0.026,0.485-2.616,0.485-2.616l2.6,0.501l1.543-1.058l-6.962-3.599l4.57-7.7l10.371-0.261
					c3.021,5.772,4.611,12.45,8.966,17.407c1.842,2.097,4.012,3.875,6.026,5.808c3.459,3.318,6.445,7.077,9.573,10.697
					c4.008,4.639,10.107,8.421,12.454,14.241c1.308,3.245,3.463,10.554,1.968,13.807
					C702.25,343.772,699.472,345.064,696.848,345.009z"/>
			</g>
		</g>
		<path style="fill:#96BFEE;" d="M704.468,333.135c0.633,0.098,1.31,0.217,1.768,0.665c0.513,0.501,0.615,1.279,0.673,1.994
			c0.673,8.237-0.604,16.497-1.962,24.649c-1.89,11.339-4.294,23.357-12.25,31.656c-4.584,4.781-12.003,7.962-17.844,4.837
			c-5.109-2.733-6.98-9.064-7.776-14.803c-2.352-16.964,0.534-34.618,8.166-49.95c0.51-1.025,1.073-2.078,2.002-2.749
			c2.276-1.642,9.379,0.936,12.065,1.353C694.364,331.569,699.416,332.352,704.468,333.135z"/>
	</g>
	<g>
		<g>
			<path style="fill:#EACDB0;" d="M573.86,297.932c3.414-2.802,4.67-7.446,3.136-11.6c-2.802-7.59-5.605-15.181-8.407-22.771
				c-1.574-4.262-4.577-9.342-4.631-13.788c-0.096-7.858,2.704-16.769,4.316-24.429c0.819-3.889,1.119-9.39,3.16-12.822
				c0.383-0.643,5.578-5.313,5.472-5.486c-0.008-0.016-0.798-1.563-0.798-1.563l-1.55,0.804l-1.174-0.379l3.727-3.581l-4.334-4.011
				l-6.606,1.781c-0.827,4.216-0.58,8.736-2.404,12.688c-0.771,1.671-1.81,3.203-2.721,4.802c-1.565,2.747-2.747,5.683-4.046,8.559
				c-1.257,2.782-3.062,5.327-4.261,8.081c-2.674,6.147-5.305,12.314-7.956,18.471l12.291,40.147
				C559.266,299.995,568.083,302.672,573.86,297.932z"/>
		</g>
		<path style="fill:#96BFEE;" d="M603.102,301.706c-4.984-2.173-9.682-5.093-13.538-8.666c-1.776-1.645-9.798-16.861-8.338-17.263
			c-0.123,0.039-0.246,0.078-0.369,0.117l-1.08,0.402c-0.049-0.005-0.094-0.011-0.147-0.016c-2.397-0.242-6.717,2.14-9.051,2.882
			c-7.579,2.41-15.086,5.163-22.876,6.498c0.002,6.818,1.319,13.594,3.226,20.119c1.745,5.968,4.727,10.848,6.994,16.472
			c2.353,5.837,5.401,11.251,8.483,16.726c0.753,1.336,8.303,16.887,7.866,16.962c4.377-0.749,7.75-4.214,10.437-7.749
			c6.31-8.305,9.312-19.557,17.232-26.334c6.153-5.264,14.198-5.775,13.409-16.412C611.276,304.71,607.097,303.448,603.102,301.706z
			"/>
	</g>
	<g>
		<path style="fill:#EACDB0;" d="M472.544,274.275c0.071,1.229-0.611,2.624-1.046,3.74c-1.518,3.893-2.013,8.179-1.424,12.315
			c4.033-0.013,8.067,0.643,11.887,1.934c0.836-3.02,1.671-6.04,2.507-9.06c0.131-0.474,0.27-0.964,0.582-1.344
			c0.402-0.49,1.027-0.726,1.616-0.96c3.24-1.287,6.261-3.125,8.895-5.411c0.573-0.497,1.145-1.04,1.432-1.742
			c0.259-0.634,0.262-1.34,0.261-2.025c-0.009-5.462-0.017-10.923-0.026-16.385c-0.001-0.61-0.015-1.263-0.363-1.764
			c-0.358-0.515-0.988-0.753-1.579-0.963c-0.933-0.331-1.866-0.662-2.8-0.993c-0.26-0.136-0.54-0.238-0.843-0.299
			c-1.898-0.673-2.351-0.62-4.228-0.005c-0.364,0.119-4.433,1.033-4.467,0.689c0.561,5.79-1.094,11.767-4.552,16.444
			c-0.236,0.32-0.528,0.66-0.924,0.694c-0.42,0.036-0.776-0.287-1.062-0.596c-1.276-1.377-2.331-2.957-3.114-4.663
			c-1.507,0.377-3.014,0.754-4.52,1.131c-0.398,2.407,0.404,5.102,2.117,6.858c0.181,0.186,0.352,0.337,0.508,0.469
			C472.053,272.888,472.478,273.124,472.544,274.275z"/>
		<polygon style="fill:#305399;" points="487.724,282.509 468.9,279.426 449.702,331.966 404.347,324.24 414.225,384.693 
			471.92,350.138 		"/>
	</g>
	<g>
		<g>
			<g>
				<g>
					<path style="fill:#E5D1BD;" d="M338.518,685.783c-2.862,0.19-5.481-0.815-8.255-1.128c0.132-9.799,1.194-19.195,3.305-28.871
						c4.314,4.789,7.947,2.005,7.8,11.004C341.32,669.701,337.957,681.351,338.518,685.783z"/>
					<path style="fill:#3B455A;" d="M329.636,679.782c-3.255-1.165-3.989,6.608-4.014,8.436c-0.015,1.098,0.115,2.218-0.164,3.281
						c-0.307,1.169-1.078,2.152-1.831,3.098c-1.576,1.981-3.152,3.962-4.728,5.943c-0.709,0.891-1.429,1.803-1.809,2.876
						c-0.941,2.659,0.613,5.812,3.131,7.085c8.736,4.413,16.716-6.273,18.608-13.328c0.29-1.081,0.502-2.182,0.713-3.281
						c0.437-2.274,2.159-7.233,1.256-9.455c-1.053-2.593-4.244-0.714-6.334-1.691C332.526,681.839,330.953,680.254,329.636,679.782z
						"/>
				</g>
				<path style="fill:#96BFEE;" d="M391.702,524.32c-8.144,22.173-17.543,43.861-22.902,67.073
					c-6.621,28.673-17.296,56.635-22.775,85.372c-3.54,0.115-7.088-0.036-10.606-0.451c-4.033-0.476-10.433-1.564-11.889-5.968
					c-0.744-2.251,0.045-5.911,0.158-8.249c0.363-7.488,0.898-14.969,1.449-22.445c1.558-21.153,2.626-42.566,6.517-63.419
					c4.093-21.938,8.013-43.951,11.614-65.885c1.861-11.337,4.154-22.603,6.973-33.741c0.727-2.87,8.293-32.449,9.778-32.213
					c17.629,2.805,34.12,8.643,49.472,17.747c1.492,0.885,2.932,1.939,3.451,3.515c0.519,1.575,0.049,2.933-0.432,4.362
					c-4.588,13.634-10.706,26.42-15.598,40.002C395.21,514.745,393.483,519.47,391.702,524.32z"/>
			</g>
			<g>
				<g>
					<path style="fill:#E5D1BD;" d="M393.237,684.192c2.676,1.033,5.476,0.852,8.217,1.379c2.788-9.395,4.569-18.682,5.431-28.547
						c-5.543,3.289-8.184-0.449-10.72,8.186C395.344,668.004,395.091,680.127,393.237,684.192z"/>
					<path style="fill:#3B455A;" d="M404.256,682.742c0.006,5.313,4.189,11.034,6.503,15.812c0.272,0.562,0.55,1.147,0.561,1.771
						c0.017,0.928-0.55,1.752-1.094,2.504c-0.754,1.044-1.574,2.141-2.774,2.611c-1.179,0.461-2.503,0.23-3.739-0.041
						c-2.069-0.454-4.116-1.003-6.135-1.644c-0.503-0.16-1.016-0.332-1.426-0.664c-0.486-0.393-0.778-0.971-1.056-1.531
						c-1.427-2.873-2.641-4.911-2.564-8.112c0.08-3.306,0.497-6.731-0.108-10.007c-0.299-1.589-0.695-3.621,0.667-4.493
						c1.052-0.674,2.979,0.255,4.125,0.442c2.022,0.33,3.89,0.205,5.752,1.266c0.379,0.216,0.749,0.477,0.982,0.845
						C404.188,681.876,404.255,682.299,404.256,682.742z"/>
				</g>
				<path style="fill:#96BFEE;" d="M390.481,514.217c1.181,23.592,3.704,47.094,1.918,70.849
					c-2.206,29.345-0.33,59.216-3.646,88.282c3.345,1.163,6.778,2.074,10.26,2.724c3.992,0.745,10.426,1.61,13.125-2.162
					c1.38-1.928,1.715-5.657,2.302-7.922c1.88-7.257,3.594-14.559,5.292-21.86c4.804-20.659,10.152-41.421,12.639-62.488
					c2.617-22.162,5.421-44.345,8.507-66.358c1.595-11.377,2.757-22.815,3.377-34.288c0.16-2.956,1.733-33.447,0.245-33.663
					c-17.665-2.564-35.146-1.896-52.512,2.231c-1.688,0.401-3.376,0.979-4.34,2.329c-0.964,1.35-0.919,2.786-0.885,4.294
					c0.326,14.382,2.363,28.409,2.995,42.831C389.979,504.032,390.223,509.057,390.481,514.217z"/>
			</g>
			<path style="fill:#305399;" d="M380.56,324.897c-0.287,0.097-0.573,0.199-0.857,0.307c-4.742,1.8-8.776,5.038-12.722,8.226
				c-5.927,4.788-8.846,6.886-11.135,13.977c-2.135,6.612-3.471,13.595-4.779,20.409c-6.712,34.983-8.009,69.82-12.826,105.066
				c-1.311,9.594-2.324,20.873,4.772,27.463c12.59-9.798,28.415-10.364,43.684-10.377c10.723-0.01,21.207-3.483,31.955-2.286
				c10.272,1.144,19.245-1.424,29.669-0.745c2.514,0.164,5.716,0.136,6.707-2.18c-3.607-10.814-3.545-22.444-4.362-33.814
				c-2.112-29.412-11.856-57.635-15.788-86.848c-1.337-9.929-2.05-26.411-9.739-33.927c-8.357-8.168-27.418-8.334-38.157-6.737
				C384.807,323.754,382.641,324.193,380.56,324.897z"/>
			<g>
				<g>
					<g>
						<g>
							<path style="fill:#EACDB0;" d="M388.535,324.403c0.176,0.344,0.413,0.673,0.729,0.985c1.248,1.231,2.977,1.929,4.693,2.175
								c2.262,0.324,4.561-0.052,6.806-0.48c3.032-0.578,2.925-2.354,3.365-5.107c0.24-1.504,0.39-3.02,0.504-4.538
								c0.062-0.832-0.26-3.813,0.27-4.396c0.36-0.396,1.826-0.263,2.468-0.598c1.018-0.531,1.869-1.511,2.48-2.462
								c0.986-1.534,1.529-3.303,2.06-5.047c0.924-3.034,1.849-6.069,2.773-9.103c0.945-3.1,1.895-6.227,2.198-9.454
								c0.457-4.864-0.329-11.73-4-15.287c-3.349-3.244-8.235-4.38-12.716-4.953c-5.933-0.758-12.084,0.328-17.208,3.477
								c-2.069,1.272-4.031,2.921-5.253,5.188c-1.884,3.496-1.741,7.86-1.538,11.941c0.187,3.766,0.374,7.533,0.561,11.299
								c0.215,4.332,0.754,9.324,4,11.673c1.723,1.247,3.977,1.514,5.452,3.113c1.848,2.003,1.728,5.009,1.805,7.549
								C388.029,321.831,387.92,323.205,388.535,324.403z"/>
						</g>
						<path style="fill:#3B455A;" d="M407.317,275.715c0.204,0.354,0.375,0.72,0.507,1.101c0.691,1.997,0.224,4.251,0.9,6.253
							c1.071,3.175,4.775,5.083,5.333,8.386c0.456,2.702-1.389,5.27-1.545,8.005c-0.17,2.988,1.744,5.817,1.447,8.767
							c-0.258,2.563-1.883,6.164-3.413,8.217c0.474-0.636,4.763-0.41,5.876-1.089c1.705-1.041,1.899-1.698,2.407-3.474
							c0.504-1.764,0.113-3.503,0.898-5.31c0.963-2.217,2.942-3.844,3.635-6.208c0.945-3.226-0.771-6.63-0.637-9.989
							c0.203-5.085,4.597-9.875,3.003-14.707c-0.936-2.835-3.689-4.647-5.237-7.199c-1.175-1.938-1.609-4.223-2.424-6.338
							c-0.815-2.115-2.217-4.231-4.391-4.873c-1.208-0.356-2.507-0.21-3.745-0.441c-2.14-0.398-3.918-1.875-5.981-2.573
							c-2.95-0.998-8.154,1.985-9.876,4.485c-1.709,2.482-0.847,4.591,0.901,6.785C397.883,269.168,404.915,271.559,407.317,275.715
							z"/>
					</g>
					<path style="fill:#3B455A;" d="M367.59,260.696c-1.768,1.297-3.951,2.234-5.565,3.75c-3.147,2.955-3.746,7.681-3.859,11.996
						c-0.101,3.842-1.782,7.257-1.366,11.262c0.28,2.69,1.423,5.41,3.612,6.998c2.726,1.978,7.005,2.302,8.221,5.442
						c1.321,3.411-2.213,7.707-0.068,10.67c1.184,1.635,3.503,1.874,5.196,2.973c1.889,1.226,2.859,3.414,4.013,5.348
						c1.154,1.934,2.886,3.871,5.137,3.919c0.091-3.424,0.193-6.137-1.27-9.268c-0.852-1.824-3.36-5.189-1.434-7.165
						c1.215-1.642,4.084-2.176,4.158-4.217c0.035-0.958-0.634-1.775-1.162-2.576c-2.043-3.1-2.251-7.23-0.866-10.675
						c1.385-3.444,4.239-6.196,7.58-7.814c3.916-1.896,3.285-2.853,4.423-6.602c1.047-3.45,3.005-4.259,6.111-5.517
						c2.789-1.129,3.685-1.833,4.714-4.443c0.753-1.91,1.68-4.197,0.588-6.329c-0.868-1.694-2.431-2.905-3.944-4.059
						c-3.162-2.411-6.715-4.946-10.681-4.66c-2.202,0.159-4.275,1.194-6.479,1.319c-1.471,0.083-2.933-0.242-4.405-0.291
						c-2.51-0.084-5.157,0.679-7.189,2.173c-2.05,1.507-1.992,3.085-3.131,5.224C369.367,259.201,368.538,260.001,367.59,260.696z"
						/>
					<path style="fill:#3B455A;" d="M376.47,246.618c0.385-2.385,0.138-5.494-2.14-6.3c-1.248-0.441-2.647,0.042-3.944-0.222
						c-2.765-0.562-3.706-3.911-5.156-6.331c-0.217-0.362-0.475-0.729-0.861-0.902c-0.552-0.246-1.185-0.027-1.784,0.046
						c-2.751,0.336-4.843-2.38-7.434-3.364c-3.207-1.218-7.243,0.787-8.209,4.079c-0.397,1.353-0.328,2.806-0.7,4.166
						c-1.51,5.508-9.577,7.852-9.781,13.56c-0.138,3.857,3.637,7.553,2.169,11.122c-0.938,2.283-3.875,3.839-3.539,6.284
						c0.216,1.573,1.891,2.644,3.479,2.622c1.588-0.022,3.046-0.893,4.242-1.938c1.898-1.658,3.329-3.785,5.137-5.54
						c1.809-1.756,4.22-3.179,6.721-2.867c2.422,0.302,4.614,2.188,7.022,1.785c1.926-0.323,3.355-2.04,5.246-2.525
						c1.77-0.453,3.61,0.242,5.433,0.352c1.824,0.11,4.063-0.839,4.111-2.665c0.012-0.442-0.112-0.9,0.027-1.32
						c0.389-1.177,2.4-1.11,2.782-2.29c-0.952-1.468-2.294-0.942-2.977-2.858C375.787,250.031,376.228,248.117,376.47,246.618z"/>
				</g>
			</g>
		</g>
	</g>
	<g>
		<g>
			<g>
				<g>
					<g>
						<rect x="366.287" y="356.234" style="fill:#D7E8F4;" width="375.388" height="260.626"/>
					</g>
					<g style="opacity:0.5;">
						<path style="fill:#F7F7F7;" d="M464.638,364.52h-89.6v79.615C375.038,400.164,415.153,364.52,464.638,364.52z"/>
					</g>
				</g>
			</g>
		</g>
		<g style="opacity:0.5;">
			<path style="fill:#F7F7F7;" d="M530.372,616.86h211.303V483.439C741.675,483.439,722.155,616.86,530.372,616.86z"/>
		</g>
	</g>
	<g>
		<path style="opacity:0.49;fill:#808080;" d="M703.149,174.66c-0.017-0.095-0.029-0.191-0.047-0.286
			c0.057,0.048,0.108,0.1,0.165,0.147C703.228,174.568,703.187,174.612,703.149,174.66z"/>
	</g>
	<g>
		<g>
			<g>
				<polygon style="fill:#34435A;" points="179.07,700.559 178.469,709.005 194.759,718.652 203.805,710.808 195.961,701.762 
					179.672,692.114 				"/>
			</g>
			<g>
				<polygon style="fill:#305399;" points="170.683,443.738 168.858,469.387 195.145,582.965 178.38,697.775 194.894,702.318 
					243.689,564.938 245.335,523.341 235.569,437.57 				"/>
			</g>
		</g>
		<g>
			<g>
				<polygon style="fill:#305399;" points="276.72,458.876 287.155,566.445 278.714,707.009 263.112,708.34 242.324,581.08 
					210.04,454.8 				"/>
			</g>
			<g>
				<polygon style="fill:#34435A;" points="263.043,706.476 263.763,714.912 281.355,721.908 289.071,712.752 279.915,705.036 				
					"/>
			</g>
		</g>
		<g>
			<path style="fill:#587BC9;" d="M155.68,457.163c-1.233,9.785-2.296,23.033,1.421,23.908c0.697,0.164,1.41-0.115,2.062-0.388
				c6.884-2.881,12.013-7.409,18.792-10.178c7.105-2.903,15.003-4.018,22.694-4.574c11.506-0.891,23.18-0.973,34.706,0.021
				c9.061,0.781,18.068,2.495,26.996,4.179c7.428,1.402,14.169,4.346,21.857,4.609c7.88,0.27,15.835-1.327,22.949-4.743
				c0.26-0.125,0.537-0.269,0.667-0.528c0.142-0.283,0.067-0.621-0.01-0.927c-1.143-4.545-1.842-9.001-4.367-12.928
				c-2.82-4.386-4.589-9.77-6.453-14.623c-3.885-10.114-7.437-20.66-9.786-31.249c-3.711-14.447-8.195-28.609-11.73-43.084
				c-2.45-10.033-4.579-20.207-8.314-29.865c-2.925-7.562-8.377-18.733-15.928-22.713c-2.556-1.347-5.488-1.749-8.352-2.13
				c-8.688-1.155-17.375-2.31-26.063-3.465c-3.167-0.421-6.464-0.831-9.496,0.177c-4.543,1.511-7.469,5.814-10.055,9.843
				c-11.595,18.068-19.859,37.987-25.494,58.829c-2.942,10.882-5.752,21.801-8.198,32.799c-2.73,12.273-5.014,24.649-6.521,37.126
				C156.889,448.647,156.265,452.514,155.68,457.163z"/>
		</g>
		<g>
			<path style="fill:#D7E8F4;" d="M224.738,358.033c-0.185,4.972-1.402,9.84-2.613,14.667c-7.376,29.4-14.752,58.8-22.128,88.201
				c23.418,2.225,46.837,4.45,70.255,6.675c0.314-11.27,0.627-22.54,0.941-33.81c0.201-7.225,0.401-14.475-0.382-21.667
				c-1.263-11.6-5.051-22.789-8.816-33.874c-6.956-20.48-13.911-40.961-20.867-61.441c-0.372-1.095-0.766-2.228-1.574-3.072
				c-0.967-1.011-2.383-1.464-3.743-1.848c-6.568-1.856-14.018-3.623-20.842-3.334c-2.316,5.944,2.779,17.225,4.485,23.155
				C221.938,340.315,225.075,348.95,224.738,358.033z"/>
		</g>
		<g>
			<g>
				<path style="fill:#EACDB0;" d="M233.474,315.914c-4.828-0.714-9.655-1.428-14.483-2.142c0.14-3.889,0.591-7.767,1.347-11.584
					c-0.092,0.463-7.428-4.434-8.018-5.433c-1.699-2.877-1.463-7.389-1.956-10.653c-1.049-6.953-1.903-14.749,2.299-20.387
					c4.352-5.839,12.591-7.137,19.851-6.574c9.116,0.706,18.992,4.41,22.857,12.696c3.491,7.484-2.915,17.323-5.21,24.616
					c-1.131,3.596-2.711,7.669-6.285,8.866c-1.898,0.636-4.087,0.318-5.826,1.31C234.986,308.379,235.174,312.821,233.474,315.914z"
					/>
			</g>
			<g>
				<path style="fill:#3B455A;" d="M271.095,259.853c1.062-4.969,2.124-9.938,3.187-14.908c0.395-1.846,0.789-3.762,0.37-5.602
					c-0.697-3.06-3.507-5.218-6.436-6.347c-2.929-1.128-6.099-1.489-9.078-2.476c-3.18-1.054-6.193-2.832-9.537-3.031
					c-6.359-0.378-11.814,4.99-18.175,5.341c-8.807,0.485-16.351-4.31-22.64,5.343c-1.156,1.774-1.646,3.902-2.693,5.742
					c-1.353,2.376-3.55,4.133-5.339,6.201c-7.868,9.091-7.197,24.198,0.244,33.368c3.607,4.446,4.876,8.26,10.288,10.128
					c-2.004-5.427,3.485-25.645,10.678-27.231c1.905-0.419,7.203,2.408,9.212,2.918c4.451,1.129,8.769,2.31,12.837,4.512
					c6.038,3.268,12.696,5.831,19.472,7.05c0.867,0.156,1.84,0.29,2.559-0.218c0.677-0.478,0.899-1.365,1.072-2.175
					C268.443,272.262,269.769,266.058,271.095,259.853z"/>
			</g>
		</g>
	</g>
	<g>
		<g>
			<path style="fill:#305399;" d="M524.797,152.374c-3.428-22.924,12.246-44.289,35.071-47.964c-0.138-0.716-0.271-1.434-0.38-2.162
				c-4.187-27.998,15.115-54.09,43.114-58.278c15.234-2.278,29.895,2.409,40.779,11.656c7.128-11.08,18.802-19.157,32.856-21.259
				c25.012-3.741,48.374,12.792,53.425,37.26c1.047-0.239,2.105-0.452,3.184-0.614c23.083-3.452,44.595,12.462,48.047,35.546
				c2.777,18.569-6.984,36.113-22.922,44.065c2.818,4.568,4.781,9.766,5.625,15.41c3.341,22.339-12.06,43.156-34.398,46.497
				c-1.713,0.256-3.416,0.397-5.104,0.437l6.471,43.266c0.253,1.88-2.043,2.991-2.867,2.136l-33.178-34.373
				c-5.761,5.202-13.058,8.83-21.311,10.065c-14.968,2.239-29.244-3.945-38.046-14.984c-6.291,5.385-14.114,9.133-22.908,10.448
				c-24.945,3.731-48.192-13.467-51.923-38.413c-0.162-1.085-0.271-2.165-0.355-3.242
				C542.242,185.065,527.594,171.074,524.797,152.374z"/>
			<g>
				<path style="fill:#FFFFFF;" d="M605.133,144.891c6.172-0.923,7.617,8.668,1.435,9.593
					C600.395,155.407,598.95,145.816,605.133,144.891z"/>
				<path style="fill:#FFFFFF;" d="M648.3,138.435c6.172-0.923,7.617,8.668,1.435,9.593
					C643.562,148.951,642.117,139.36,648.3,138.435z"/>
				<path style="fill:#FFFFFF;" d="M702.258,130.365c6.173-0.923,7.617,8.668,1.435,9.593
					C697.521,140.881,696.076,131.29,702.258,130.365z"/>
			</g>
		</g>
	</g>
	<g>
		<path style="fill:#333333;" d="M710.31,408.611c-5.271,4.208-10.542,8.416-15.812,12.624c2.682,4.109,5.312,8.254,7.854,12.459
			c1.273,2.106-2.155,3.766-3.417,1.68c-2.4-3.969-4.882-7.882-7.412-11.764c-5.133,4.098-10.266,8.196-15.4,12.294
			c-1.914,1.529-4.404-1.361-2.482-2.895c5.263-4.202,10.527-8.404,15.79-12.606c-3.091-4.649-6.273-9.237-9.554-13.761
			c-1.434-1.977,1.437-4.487,2.88-2.495c3.31,4.564,6.52,9.196,9.643,13.886c5.142-4.105,10.285-8.211,15.427-12.316
			C709.741,404.188,712.231,407.078,710.31,408.611z"/>
		<path style="fill:#333333;" d="M691.405,464.033c-1.155-7.083-3.007-13.898-5.535-20.606c-0.558-1.482-2.441-1.215-3.274-0.244
			c-5.066,5.9-9.091,12.312-12.296,19.398c-0.832,1.84,1.657,3.198,3.033,2.091c1.799-1.448,3.435-2.997,4.952-4.631
			c-8.757,28.073-17.234,62.587-48.919,69.077c-28.341,5.806-44.32-25.84-56.615-45.962c-10.546-17.26-21.74-35.959-39.368-46.796
			c-18.832-11.576-42.016-10.778-61.149-0.324c-19.297,10.544-34.741,29.898-34.316,52.56c-12.04-0.699-22.421,8.06-24.611,20.106
			c-1.844,10.148,3.303,26.579,15.104,26.091c-0.13,0.797,0.208,1.616,1.227,1.88c13.351,3.462,26.064-5.058,28.747-18.566
			c2.448-12.319-4.05-26.046-16.675-28.95c-1.297-30.826,30.429-56.824,59.57-57.545c48.157-1.193,63.281,53.504,88.742,84.093
			c7.608,9.139,17.297,16.768,29.506,17.806c11.391,0.97,22.357-3.719,31.061-10.857c21.167-17.361,25.581-45.711,34.224-70.384
			c1.2,4.096,2.164,8.244,2.858,12.504C688.069,467.203,691.8,466.459,691.405,464.033z M438.927,492.54
			c0.249,0.105,0.525,0.147,0.81,0.128c0.387,0.064,0.774,0.121,1.162,0.209c23.422,5.327,15.381,44.314-7.896,40.621
			c1.003-1.288,0.174-3.661-1.732-3.082c-13.884,4.213-16.401-16.691-13.004-25.353C421.597,496.573,430.056,491.45,438.927,492.54z
			"/>
		<path style="fill:#305399;" d="M419.403,519.752c-0.222-1.176-0.312-2.387-0.336-3.583c-0.276-13.872,6.873-23.105,21.141-19.756
			c7.346,1.724,11.614,10.977,11.579,17.893c-0.023,4.647-1.426,9.759-5.351,12.217c-6.385,3.998-21.474,4.462-25.743-3.089
			C420.047,522.293,419.646,521.044,419.403,519.752z"/>
	</g>
	<g>
		
			<rect x="386.111" y="269.596" transform="matrix(0.5765 0.8171 -0.8171 0.5765 425.6264 -269.6997)" style="fill:#587BC9;" width="173.749" height="12.289"/>
		
			<rect x="406.194" y="255.428" transform="matrix(0.5765 0.8171 -0.8171 0.5765 422.5541 -292.1101)" style="fill:#587BC9;" width="173.749" height="12.289"/>
		
			<rect x="396.152" y="262.512" transform="matrix(0.5765 0.8171 -0.8171 0.5765 424.0904 -280.9049)" style="fill:#305399;" width="173.749" height="12.289"/>
		
			<rect x="430.332" y="177.883" transform="matrix(0.5765 0.8171 -0.8171 0.5765 343.3527 -269.8365)" style="fill:#9E9C9C;" width="3.314" height="36.867"/>
		
			<rect x="428.421" y="175.175" transform="matrix(0.5765 0.8171 -0.8171 0.5765 340.3466 -269.4253)" style="fill:#DEDFDE;" width="3.315" height="36.867"/>
		
			<rect x="426.511" y="172.467" transform="matrix(0.5765 0.8171 -0.8171 0.5765 337.3164 -269.0094)" style="fill:#9E9C9C;" width="3.315" height="36.867"/>
		<path style="fill:#F0F1F1;" d="M398.027,180.154l12.213,17.31l30.124-21.253l-12.213-17.31c-4.843-6.864-14.333-8.503-21.197-3.66
			l-5.267,3.716C394.823,163.799,393.184,173.289,398.027,180.154z"/>
		
			<rect x="424.6" y="169.758" transform="matrix(0.5765 0.8171 -0.8171 0.5765 334.3055 -268.5974)" style="fill:#DEDFDE;" width="3.314" height="36.867"/>
		<polygon style="fill:#F8E4B8;" points="548.171,329.016 518.047,350.269 559.3,376.766 		"/>
		<polygon style="fill:#333333;" points="556.699,365.605 549.658,370.573 559.3,376.766 		"/>
	</g>
	<g>
		<path style="opacity:0.25;fill:#3B455A;" d="M236.082,566.493c0,0,167.617,7.096,169.707,5.77
			c2.09-1.326,0.857-169.453-5.661-175.884C400.128,396.379,246.265,556.033,236.082,566.493z"/>
		<path style="fill:#3B455A;" d="M399.936,566.493H227.894c3.965-26.061,6.808-56.842,6.484-91.374
			c-0.256-27.328-0.137-50.941-4.119-77.113c57.348,0,112.33-3.556,169.678-3.556c2.438,24.028,4.066,50.238,4.32,78.354
			C404.562,506.857,402.802,538.246,399.936,566.493z"/>
		<g>
			<path style="fill:#FFFFFF;" d="M308.901,464.852c-1.224-11.292-5.247-24.529-16.468-29.552
				c-12.836-5.748-26.595,0.235-38.356,5.72c-1.618,0.755-0.21,3.15,1.402,2.398c1.162-0.542,2.353-1.094,3.567-1.641
				c2.4,25.363-2.466,50.749-0.672,76.125c-0.363,0.549-0.27,1.32,0.139,1.792c0.047,0.561,0.076,1.121,0.13,1.681
				c0.169,1.763,2.948,1.781,2.777,0c-0.059-0.607-0.091-1.215-0.141-1.822C283.992,511.77,311.798,491.587,308.901,464.852z
				 M289.343,500.048c-8.203,7.431-17.866,12.99-28.287,16.627c-1.581-25.359,3.289-50.729,0.661-76.074
				c9.803-4.194,20.837-7.408,30.711-2.237c10.463,5.481,14.05,20.505,13.964,31.403
				C306.294,482.138,298.095,492.119,289.343,500.048z"/>
			<path style="fill:#FFFFFF;" d="M330.021,481.234c-4.099-1.635-9.652,0.36-13.075,2.573c-5.14,3.323-8.436,8.802-9.698,14.726
				c-2.353,11.053,0.642,25.249,13.965,26.292c12.836,1.005,22.547-10.557,23.906-22.48
				C346.258,492.355,340.225,481.548,330.021,481.234z M341.969,504.478c-1.989,9.115-9.329,17.638-19.262,17.628
				c-12.298-0.013-14.877-13.035-12.78-22.835c0.95-4.436,3.048-8.629,6.516-11.625c2.054-1.774,5.57-3.794,8.87-4.198
				c0.254,0.557,0.826,0.979,1.59,0.816c0.829-0.177,1.623-0.269,2.389-0.298c0.309,0.146,0.609,0.314,0.893,0.522
				c0.692,0.507,1.367,0.214,1.73-0.34C340.204,485.72,343.738,496.371,341.969,504.478z"/>
			<path style="fill:#FFFFFF;" d="M367.661,512.9c-0.054-0.072-0.099-0.152-0.162-0.218c-1.598-1.654-3.756-0.6-4.648,1.095
				c-0.837,1.092-1.521,2.295-1.33,3.739c0.2,1.511,1.372,2.824,2.976,2.799c1.7-0.027,2.961-1.402,3.41-2.944
				c0.648-0.636,1.023-1.55,0.827-2.658C368.605,513.983,368.207,513.341,367.661,512.9z"/>
			<path style="fill:#FFFFFF;" d="M374.023,450.202c-1.296-2.3-4.878-2.275-7.195-2.398c-0.766-0.041-1.368,0.669-1.389,1.389
				c-0.475,16.337-0.598,32.68-0.369,49.023c0.014,1.006,0.902,1.447,1.67,1.32c0.166,1.703,2.72,1.703,2.767-0.07
				c0.321-12.12,1.325-24.208,3.15-36.196c0.405-2.657,0.853-5.307,1.324-7.953C374.269,453.7,374.897,451.753,374.023,450.202z
				 M368.182,450.656c0.119,0.011,0.238,0.024,0.356,0.038c-0.088,0.169-0.156,0.353-0.177,0.564
				c-0.049,0.506-0.134,0.99-0.228,1.466C368.151,452.035,368.163,451.346,368.182,450.656z M367.962,459.941
				c0.198,0.15,0.436,0.229,0.683,0.242c-0.296,1.493-0.611,2.896-0.754,3.984C367.914,462.759,367.935,461.35,367.962,459.941z"/>
		</g>
	</g>
	<g>
		<g>
			<path style="fill:#E5D1BD;" d="M269.101,447.497c-0.107-0.303-0.221-0.616-0.404-0.867c-1.706-2.343-3.999-2.543-6.275-4.324
				c-1.015-0.794-0.717-4.095-3.261-3.217c-0.939,0.324-3.129,1.443-5.124,2.152c-2.909,1.035-7.222,0.588-10.581-0.399
				c-4.514-1.326-9.261-2.835-13.492-4.804c-8.889-4.138-18.328-9.723-26.278-15.484c8.929-13.553,9.426-32.194,1.232-46.203
				c-0.856-1.464-1.845-2.925-3.292-3.809c-1.224-0.747-2.681-1.019-4.112-1.112c-15.135-0.983-15.419,13.4-16.133,24.979
				c-0.445,7.227-0.439,14.592,0.186,21.81c0.876,10.108,7.406,15.915,16.045,20.727c9.155,5.099,18.52,10.101,28.591,13.15
				c4.894,1.482,9.716,1.936,14.712,2.76c4.938,0.814,4.3,2.967,8.44,4.788c2.31,1.016,4.472,2.489,6.941,3.06
				c4.425,1.024,7.983-2.033,11.355-4.398c0.84-0.589,1.408-0.984,1.846-1.84c0.712-1.392,0.441-2.884,0.226-4.374
				C269.595,449.21,269.396,448.333,269.101,447.497z"/>
		</g>
		<g>
			<path style="fill:#587BC9;" d="M173.708,400.007c0.23,5.591,0.695,11.066,1.349,16.322c0.975,7.836,2.272,16.336,8.001,21.77
				c2.208,2.095,4.924,3.563,7.612,4.992c12.742,6.773,25.653,13.226,38.718,19.351c4.762-5.896,8.624-12.518,11.409-19.567
				c0.782-1.978,1.484-4.174,0.814-6.192c-0.996-2.999-4.467-4.257-7.506-5.122c-4.95-1.408-9.899-2.817-14.849-4.225
				c-1.606-0.457-3.365-1.027-4.215-2.465c-0.555-0.939-0.611-2.08-0.635-3.17c-0.459-20.611,3.171-37.834,7.952-57.726
				c2.106-8.768,4.221-17.87,2.472-26.716c-3.736-18.889-28.603-23.807-38.082-6.288
				C175.937,350.947,172.742,376.504,173.708,400.007z"/>
		</g>
	</g>
	<g>
		<g>
			<g>
				<path style="fill:#E5D1BD;" d="M712.734,411.214c0.872-0.987,1.147-1.357,2.564-1.994c1.417-0.637,3.102-0.856,4.788-1.967
					c1.224-0.806,0.915-3.748,3.746-2.632c1.046,0.413,2.872,1.724,4.87,2.486c2.914,1.112,7.065,1.016,10.574,0.245
					c13.789-3.031,27.648-5.804,41.766-7.224c0.805-0.081,1.604-0.136,2.281-0.613c1.212-0.854,1.372-2.244,1.682-3.609
					c1.434-6.328,3.052-12.529,5.672-18.502c2.338-5.33,5.102-10.405,9.601-14.175c4.499-3.769,10.439-5.657,15.97-3.89
					c4.142,1.323,7.579,4.211,8.44,8.529c2.134,10.708-7.703,18.719-13.599,26.225c-5.579,7.102-10.35,13.126-16.191,19.638
					c-0.721,0.804-1.408,1.555-2.419,2.013c-1.011,0.458-2.181,0.483-3.279,0.469c-14.142-0.186-27.923-0.731-41.769,2.14
					c-3.805,0.789-7.278-0.016-10.86,1.2c-2.286,0.776-3.479,3.042-5.581,4.126c-2.102,1.085-4.585,2.187-6.939,2.346
					c-4.642,0.313-7.496-3.098-10.659-5.905c-2.527-2.243-4.444-2.889-7.731-2.015c-0.386,0.103-0.804,0.352-1.243,0.254
					c-1.277-0.283-1.819-1.778-1.158-2.907c0.661-1.128,1.835-1.463,3.049-1.877c1.215-0.414,2.588-0.757,3.904-0.832
					c0.564-0.032,1.196-0.008,1.605-0.408C712.227,411.938,712.365,411.632,712.734,411.214z"/>
			</g>
			<g>
				<path style="fill:#AAB4B5;" d="M810.926,390.191c-7.965-3.014-16.316-4.857-24.08-8.506c2.816-6.761,10.96-34.263,12.362-37.557
					c5.35-12.568,6.386-17.983,13.76-24.619c15.746-14.172,34.444-4.774,33.676,15.341c-0.834,21.835-12.534,40.578-25.207,57.466
					c-0.276,0.367-0.65,0.654-1.13,0.834c-0.48,0.18-1.216-0.002-1.794-0.23C816.034,391.942,813.441,391.143,810.926,390.191z"/>
			</g>
		</g>
		<g>
			<g>
				<g>
					<g>
						<g>
							<path style="fill:#E5D1BD;" d="M815.925,690.595c-2.787,0.094-5.465-0.531-8.202-0.784
								c-1.413-27.135,1.151-55.573,2.264-82.837c6.971,0.372,13.941,0.744,20.912,1.116c-4.854,14.571-8.32,29.603-10.346,44.827
								C820.232,655.33,816.323,690.582,815.925,690.595z"/>
						</g>
						<g>
							<path style="fill:#242449;" d="M806.88,684.548c-1.721-0.307-2.735,0.459-3.883,1.507c-0.666,0.609-1.119,1.47-1.922,1.906
								c-0.803,0.436-1.592,0.521-2.547,0.617c-5.029,0.505-16.614,0.296-10.442,8.706c5.605,7.638,20.491,4.597,29.09,2.523
								c0.565-0.136,1.163-0.221,1.577-0.659c0.414-0.438,0.694-1.061,0.87-1.707c0.981-3.594,2.323-8.081-2.096-9.587
								c-1.885-0.642-3.621,0.606-5.616-0.086C810.276,687.2,808.6,684.854,806.88,684.548z"/>
						</g>
					</g>
				</g>
				<path style="fill:#305399;" d="M794.358,623.34c14.216-0.276,28.431-0.551,42.647-0.827
					c11.499-54.743,21.626-109.774,30.368-165.024c0.678-4.284,1.338-8.739,0.103-12.896c-2.335-7.864-10.756-12.35-18.82-13.857
					c-12.53-2.341-35.553,0.919-41.979,13.947c-6.791,13.769-5.651,38.359-7.298,53.573
					C794.885,539.773,793.202,581.595,794.358,623.34z"/>
			</g>
			<g>
				<g>
					<g>
						<g>
							<path style="fill:#E5D1BD;" d="M897.22,690.595c2.787,0.094,5.465-0.531,8.202-0.784c1.413-27.135-1.152-55.573-2.264-82.837
								c-6.971,0.372-13.941,0.744-20.912,1.116c4.854,14.571,8.32,29.603,10.346,44.827
								C892.913,655.33,896.823,690.582,897.22,690.595z"/>
						</g>
						<g>
							<path style="fill:#242449;" d="M906.266,684.548c1.721-0.307,2.735,0.459,3.883,1.507c0.666,0.609,1.119,1.47,1.922,1.906
								c0.803,0.436,1.592,0.521,2.547,0.617c5.029,0.505,16.614,0.296,10.442,8.706c-5.605,7.638-20.491,4.597-29.09,2.523
								c-0.565-0.136-1.163-0.221-1.577-0.659c-0.414-0.438-0.694-1.061-0.87-1.707c-0.981-3.594-2.323-8.081,2.096-9.587
								c1.885-0.642,3.621,0.606,5.616-0.086C902.87,687.2,904.545,684.854,906.266,684.548z"/>
						</g>
					</g>
				</g>
				<path style="fill:#305399;" d="M918.788,623.34c-14.216-0.276-28.431-0.551-42.647-0.827
					c-11.499-54.743-21.626-109.774-30.368-165.024c-0.678-4.284-1.338-8.739-0.103-12.896c2.335-7.864,10.756-12.35,18.82-13.857
					c12.53-2.341,35.553,0.919,41.979,13.947c6.791,13.769,5.651,38.359,7.298,53.573
					C918.261,539.773,919.944,581.595,918.788,623.34z"/>
			</g>
		</g>
		<g>
			<path style="fill:#587BC9;" d="M882.337,323.159c11.396,10.847,19.934,24.78,25.076,39.213
				c9.105,25.559,9.281,52.848,9.364,79.589c0.028,8.9,0.055,17.8,0.084,26.7c0.028,8.756-0.747,10.641-10.263,9.487
				c-17.635-2.139-35.968-5.775-51.947-13.612c-7.604-3.729-14.709-8.439-22.682-11.376c-11.596-4.271-23.485-2.337-34.958-5.116
				c4.981-15.056,8.545-27.88,11.102-43.392c2.632-15.973,5.025-33.396,8.882-49.154c2.315-9.456,6.619-18.29,10.997-26.985
				c2.943-5.844,6.059-11.826,11.057-16.051C854.104,299.74,870.983,312.353,882.337,323.159z"/>
		</g>
		<g>
			<g>
				<g>
					<path style="fill:#E5D1BD;" d="M841.215,285.664c2.153,4.705,5.67,8.626,8.541,12.929c2.794,4.187,3.798,7.975,4.54,12.829
						c0.535,3.506,1.788,6.247,6.012,6.847c7.965,1.132,5.688-5.449,7.497-10.237c2.068-5.473,6.478-9.797,9.561-14.682
						c8.906-14.115,6.364-42.013-12.147-47.967C844.979,238.874,834.683,271.387,841.215,285.664z"/>
				</g>
			</g>
			<g>
				<path style="fill:#3B455A;" d="M873.479,272.005c2.298,0.093,4.825,0.275,6.529,1.818c1.704,1.543,1.519,4.909-0.73,5.273
					c-2.04,0.33-4.68-1.798-5.926-0.245c-0.728,0.908-0.089,2.236,0.464,3.298c2.12,4.074,2.755,8.798,1.765,13.138
					c0.839,0.777,2.148-0.03,2.885-0.839c3.659-4.019,6.518-8.714,8.39-13.78c0.735,1.226,1.813,2.269,3.084,2.986
					c-0.762-1.904-0.28-3.988,0.191-5.931c1.729-7.14,2.907-15.505-2.08-21.339c-2.668-3.121-6.725-4.918-10.805-5.673
					s-8.238-0.572-12.349-0.385c-1.76,0.08-3.927,0.459-4.349,2.086c3.858,1.547,7.85,4.561,9.781,8.214
					C870.923,261.747,873.244,271.996,873.479,272.005z"/>
			</g>
			<g>
				<path style="fill:#3B455A;" d="M865.325,254.85c0.141,0.102,0.279,0.205,0.414,0.308c1.749,1.331,3.388,2.95,5.505,3.54
					c3.05,0.851,6.328-0.619,9.331,0.42c3.357,1.161,5.564,5.176,8.015,7.552c4.018,3.896,9.001,6.761,14.349,8.388
					c2.732,0.831,5.562,1.342,8.413,1.503c1.292,0.073,3.022,0.318,4.282-0.021c1.691-0.456,1.633-1.224-0.169-1.802
					c-5.651-1.811-7.422-9.748-6.995-15.009c0.337-4.153,1.77-8.493,0.186-12.347c-1.21-2.944-3.808-4.464-6.32-6.148
					c-2.77-1.858-5.773-1.357-8.918-2.25c-3.281-0.932-5.954-3.515-9.301-4.174c-3.535-0.696-7.067,0.871-10.604,1.558
					c-2.922,0.568-5.96,0.53-8.867-0.109c-2.605-0.573-5.147-1.627-7.814-1.603c-3.933,0.036-7.55,2.491-9.845,5.685
					c-3.247,4.518-5.345,12.249-4.201,18.198c-0.177-0.923,2.929-4.268,3.568-4.987c1.349-1.518,2.977-2.942,5.036-3.187
					C856.052,249.81,861.578,252.129,865.325,254.85z"/>
			</g>
		</g>
		<g>
			<path id="XMLID_26_" style="fill:#252D38;" d="M769.999,529.818l-1.076,11.826c-0.349,3.841,2.148,7.209,5.579,7.521
				l27.748,2.525c3.431,0.312,6.495-2.549,6.845-6.39l1.076-11.826L769.999,529.818z"/>
			<path style="fill:#96BFEE;" d="M871.818,378.975c3.786-41.606-23.269-78.075-60.429-81.456
				c-37.159-3.381-70.353,27.606-74.138,69.212c-1.345,14.785,1.207,28.919,6.721,41.153l-0.003,0
				c15.526,36.829,17.176,66.643,17.176,66.643l33.858,3.081l33.858,3.081c0,0,7.004-29.026,28.922-62.448l-0.003,0
				C865.411,407.201,870.472,393.76,871.818,378.975z"/>
			<path style="fill:#3B455A;" d="M760.365,474.455l-4.571,50.239c-0.191,2.099,1.138,3.935,2.968,4.102l62.647,5.7
				c1.83,0.167,3.469-1.4,3.659-3.499l4.571-50.239L760.365,474.455z"/>
			<path style="opacity:0.3;fill:#587BC9;" d="M871.906,364.761c-20.494,35.855-58.943,90.626-110.774,109.558
				c0.008,0.123,0.013,0.207,0.013,0.207l33.858,3.081l33.858,3.081c0,0,7.004-29.026,28.922-62.448l-0.003,0
				c7.631-11.037,12.693-24.479,14.038-39.264C872.256,374.152,872.264,369.403,871.906,364.761z"/>
			<g>
				<path style="opacity:0.5;fill:#F7F7F7;" d="M747.682,373.927c3.305-36.323,32.283-63.376,64.725-60.424
					c18.962,1.725,34.908,13.323,44.227,29.914c-8.349-20.639-26.153-35.642-47.934-37.624
					c-32.442-2.952-61.42,24.101-64.725,60.424c-1.373,15.092,1.905,29.407,8.529,41.2
					C748.418,397.315,746.596,385.863,747.682,373.927z"/>
			</g>
			<g>
				<polygon style="fill:#F6F7F7;" points="781.919,476.416 782.542,379.244 792.937,390.851 804.446,374.176 812.941,392.106 
					825.027,383.018 808.086,478.797 811.561,479.113 830.046,374.603 814.246,386.485 805.03,367.032 792.644,384.976 
					779.125,369.878 778.444,476.1 				"/>
			</g>
			<g>
				<path style="fill:#EDECED;" d="M778.506,466.41l-0.062,9.691l3.475,0.316l0.077-11.97
					C780.84,465.117,779.678,465.773,778.506,466.41z"/>
				<path style="fill:#EDECED;" d="M815.062,439.361l-6.975,39.437l3.475,0.316l7.761-43.879
					C817.92,436.627,816.501,438.003,815.062,439.361z"/>
			</g>
			<g>
				
					<rect x="788.787" y="459.939" transform="matrix(0.0906 -0.9959 0.9959 0.0906 228.8623 1240.0717)" style="fill:#303949;" width="9.316" height="69.561"/>
				
					<rect x="786.985" y="479.753" transform="matrix(0.0906 -0.9959 0.9959 0.0906 207.4924 1256.2949)" style="fill:#303949;" width="9.316" height="69.561"/>
			</g>
			<g>
				<path style="fill:#323C4C;" d="M795.407,510.198l31.295,2.848l0.959-10.536l-19.305-1.757
					C803.953,504.386,799.621,507.509,795.407,510.198z"/>
				<path style="fill:#323C4C;" d="M828.505,493.233l1.135-12.474l-1.09-0.099c-4.052,4.835-7.953,9.083-10.768,11.598
					L828.505,493.233z"/>
				<path style="fill:#323C4C;" d="M758.762,528.796l62.647,5.7c1.83,0.167,3.469-1.4,3.66-3.499l0.789-8.674l-45.234-4.116
					c-9.641,4.325-18.16,6.443-24.8,7.446C756.045,527.324,757.219,528.656,758.762,528.796z"/>
				<path style="fill:#2E3747;" d="M808.356,500.754l19.305,1.757l0.844-9.278l-10.723-0.975
					C814.617,495.356,811.468,498.186,808.356,500.754z"/>
				<path style="fill:#2E3747;" d="M780.624,518.208l45.234,4.116l0.844-9.277l-31.295-2.848
					C790.273,513.474,785.317,516.103,780.624,518.208z"/>
			</g>
			<path style="fill:#1D232B;" d="M809.518,540.656c-8.579,7.713-23.778,8.899-28.781,9.076l21.513,1.958
				c3.431,0.312,6.496-2.549,6.845-6.39L809.518,540.656z"/>
		</g>
		<g>
			<g>
				<path style="fill:#E5D1BD;" d="M826.104,433.076c0.094-0.263,0.194-0.534,0.353-0.752c1.489-2.03,3.48-2.197,5.462-3.737
					c0.884-0.687,0.634-3.554,2.841-2.785c0.814,0.284,2.714,1.262,4.444,1.884c2.524,0.907,6.271,0.531,9.191-0.317
					c3.924-1.139,8.051-2.436,11.732-4.135c3.852-1.778,7.609-3.759,11.277-5.889c3.056-1.775,7.907-3.809,10.218-6.51
					c3.908-4.568-0.617-15.702-1.132-21.406c-0.536-5.945-0.016-23.458,8.008-23.953c13.148-0.811,13.354,11.681,13.941,21.74
					c0.367,6.278,0.341,12.674-0.223,18.941c-0.789,8.777-6.477,13.801-13.994,17.956c-7.965,4.403-16.113,8.72-24.868,11.341
					c-4.255,1.273-8.443,1.654-12.786,2.356c-4.291,0.693-3.743,2.565-7.343,4.135c-2.009,0.876-3.892,2.149-6.037,2.638
					c-3.846,0.877-6.928-1.788-9.85-3.852c-0.728-0.514-1.221-0.859-1.598-1.603c-0.614-1.211-0.375-2.506-0.184-3.8
					C825.671,434.562,825.846,433.801,826.104,433.076z"/>
			</g>
			<g>
				<path style="fill:#587BC9;" d="M902.195,390.614c-7.433,1.441-14.866,2.882-22.299,4.323c0.477-0.092-8.601-33.328-9.074-35.325
					c-1.804-7.621-3.616-15.532-2.071-23.21c3.298-16.395,11.201-20.43,21.159-3.203c9.399,16.26,24.131,35.727,21.214,54.233
					c-0.063,0.402-0.138,0.824-0.393,1.141c-0.35,0.436-0.945,0.57-1.494,0.676C906.889,389.704,904.542,390.159,902.195,390.614z"
					/>
			</g>
		</g>
	</g>
</g>
</svg>
